Coordinates
version=1
nRows=25
nColumns=38
inDegrees=no

Units are S.I. units (second, meters, Newtons, ...)
If the header above contains a line with 'inDegrees', this indicates whether rotational values are in degrees (yes) or radians (no).

endheader
time	pelvis_tilt	pelvis_list	pelvis_rotation	pelvis_tx	pelvis_ty	pelvis_tz	hip_flexion_r	hip_adduction_r	hip_rotation_r	knee_angle_r	ankle_angle_r	subtalar_angle_r	mtp_angle_r	hip_flexion_l	hip_adduction_l	hip_rotation_l	knee_angle_l	ankle_angle_l	subtalar_angle_l	mtp_angle_l	lumbar_extension	lumbar_bending	lumbar_rotation	arm_flex_r	arm_add_r	arm_rot_r	elbow_flex_r	pro_sup_r	wrist_flex_r	wrist_dev_r	arm_flex_l	arm_add_l	arm_rot_l	elbow_flex_l	pro_sup_l	wrist_flex_l	wrist_dev_l
20	2.94678	1.32102	-1.41225	0.717089	-0.508279	0.948052	-0.354693	-0.005581	-0.219431	0.0699228	0.00907674	0	0	-0.383945	-0.0404626	-0.234816	0	-0.0021525	0	0	-0.340746	0.0342099	0.0711195	0.0666676	-0.26294	0.806882	0.49458	0.697685	0	0	0.0496231	-0.183753	0.478466	0.496236	1.34172	0	0
20.01	2.89706	1.31764	-1.36787	0.720653	-0.508237	0.948181	-0.356674	0.0124422	-0.210415	0.0657507	0.0037089	0	0	-0.386902	-0.0576734	-0.240765	0	-0.000903149	0	0	-0.342029	0.0403587	0.0786637	0.0674298	-0.255404	0.806512	0.490869	0.697446	0	0	0.0493955	-0.191373	0.479614	0.500747	1.34251	0	0
20.02	2.86918	1.32349	-1.33735	0.72023	-0.508294	0.947124	-0.348841	0.018975	-0.210085	0.065853	0.0035683	0	0	-0.376265	-0.0622874	-0.241153	0	0.00266965	0	0	-0.333984	0.0476054	0.0767047	0.0665262	-0.257141	0.806459	0.49309	0.698773	0	0	0.0481748	-0.19111	0.481522	0.501175	1.34173	0	0
20.03	2.92191	1.32729	-1.38491	0.716443	-0.508138	0.946987	-0.346045	-6.32281e-05	-0.219391	0.0712523	0.0091585	0	0	-0.373077	-0.044267	-0.234453	0	0.000648128	0	0	-0.332631	0.0408257	0.0689398	0.0658556	-0.264882	0.807178	0.497557	0.699914	0	0	0.0485701	-0.183791	0.481716	0.495903	1.33932	0	0
20.04	2.86854	1.32514	-1.33734	0.720057	-0.508278	0.947035	-0.345043	0.0178312	-0.211901	0.0694669	0.00509657	0	0	-0.374497	-0.0615971	-0.24107	0	0.00292004	0	0	-0.332134	0.0475533	0.0769194	0.066491	-0.257292	0.806889	0.49263	0.698986	0	0	0.0478158	-0.190945	0.482944	0.49978	1.33794	0	0
20.05	2.86699	1.32502	-1.33597	0.720014	-0.508268	0.947037	-0.345326	0.0182178	-0.210791	0.0689841	0.00455643	0	0	-0.374637	-0.0619139	-0.241594	0	0.00355614	0	0	-0.332244	0.0479343	0.0770524	0.066463	-0.257186	0.806014	0.492397	0.698606	0	0	0.0478218	-0.191428	0.484969	0.499906	1.33595	0	0
20.06	2.89379	1.31912	-1.36535	0.720265	-0.508173	0.948092	-0.353605	0.0120188	-0.209537	0.067903	0.0037285	0	0	-0.385165	-0.057395	-0.24132	0	0.000591728	0	0	-0.340228	0.0411329	0.0786693	0.0671897	-0.255947	0.806079	0.491692	0.699234	0	0	0.0487346	-0.192628	0.485821	0.500021	1.33453	0	0
20.07	2.91553	1.31944	-1.39306	0.716187	-0.50965	0.948376	-0.344714	-0.00461092	-0.20613	0.0820389	0.00811446	0	0	-0.383911	-0.0424016	-0.245249	0	-0.00155484	0	0	-0.34575	0.0424295	0.083024	0.0706184	-0.27174	0.808932	0.501399	0.700894	0	0	0.054484	-0.177419	0.48309	0.490291	1.33377	0	0
20.08	2.91677	1.32727	-1.39313	0.716466	-0.5094	0.948141	-0.334972	-0.00590225	-0.209758	0.0853914	0.00990232	0	0	-0.375339	-0.0415702	-0.243071	0	-0.00252185	0	0	-0.335514	0.0370924	0.079163	0.0600518	-0.279478	0.744504	0.533736	0.643027	0	0	0.0528535	-0.178315	0.478855	0.486926	1.33504	0	0
20.09	2.82743	1.33108	-1.30709	0.72005	-0.510199	0.947325	-0.324931	0.0206084	-0.200991	0.0841314	0.00519015	0	0	-0.365211	-0.0655838	-0.252022	0	0.00396446	0	0	-0.327462	0.0515991	0.0866815	0.0592112	-0.268235	0.708409	0.523439	0.584907	0	0	0.0528628	-0.184598	0.480043	0.490085	1.33651	0	0
20.1	2.89389	1.32044	-1.36592	0.720012	-0.508259	0.948036	-0.348499	0.0104267	-0.212197	0.0744309	0.00688069	0	0	-0.383562	-0.0564867	-0.242356	0	0.000953576	0	0	-0.33909	0.0406219	0.0791624	0.0658051	-0.255697	0.801471	0.49578	0.635029	0	0	0.0506493	-0.190866	0.484046	0.495427	1.33705	0	0
20.11	2.94933	1.32113	-1.41527	0.716312	-0.508435	0.948117	-0.35	-0.00834029	-0.221202	0.0778538	0.0115884	0	0	-0.383566	-0.0386141	-0.23397	0	-0.00221232	0	0	-0.341143	0.0334857	0.0693595	0.0683288	-0.266186	0.819964	0.501294	0.656196	0	0	0.0507067	-0.184524	0.482885	0.493381	1.33631	0	0
20.12	2.9001	1.31816	-1.37163	0.71985	-0.508337	0.948214	-0.350805	0.00913489	-0.213118	0.0752899	0.00732806	0	0	-0.386342	-0.055411	-0.240467	0	-0.000352521	0	0	-0.34191	0.0395664	0.0768713	0.0694431	-0.258917	0.820955	0.496248	0.66646	0	0	0.0498184	-0.191689	0.482308	0.498539	1.33719	0	0
20.13	2.89765	1.318	-1.36927	0.719802	-0.508318	0.948197	-0.350906	0.00975862	-0.212081	0.075037	0.00679902	0	0	-0.386347	-0.0559514	-0.240958	0	0.000202081	0	0	-0.341993	0.0402145	0.0770044	0.0694383	-0.258551	0.818073	0.4951	0.673374	0	0	0.0497439	-0.191822	0.483019	0.499124	1.33725	0	0
20.14	2.94841	1.32102	-1.41432	0.716139	-0.50848	0.948076	-0.348251	-0.00873735	-0.222024	0.0811103	0.0127591	0	0	-0.383488	-0.0385995	-0.233936	0	-0.00167454	0	0	-0.341506	0.033648	0.0687523	0.0691553	-0.265817	0.817182	0.498989	0.679297	0	0	0.0507516	-0.184441	0.482107	0.494631	1.33705	0	0
20.15	2.95087	1.32136	-1.41688	0.716115	-0.508527	0.948083	-0.346255	-0.0100001	-0.224124	0.0843663	0.0145126	0	0	-0.383266	-0.0378675	-0.23372	0	-0.0018309	0	0	-0.341374	0.0327927	0.0684145	0.0691705	-0.265542	0.816492	0.49889	0.683663	0	0	0.0509747	-0.184114	0.480848	0.49386	1.33768	0	0
20.16	2.8754	1.32442	-1.3443	0.719326	-0.50851	0.947146	-0.339104	0.0136775	-0.216332	0.0820894	0.0107569	0	0	-0.375367	-0.0589635	-0.240864	0	0.00361073	0	0	-0.3341	0.0454231	0.0744087	0.0685063	-0.259434	0.815448	0.496131	0.687556	0	0	0.049787	-0.190296	0.481925	0.498049	1.33876	0	0
20.17	2.92739	1.32729	-1.39096	0.71564	-0.508387	0.947017	-0.337399	-0.00475537	-0.225191	0.0870974	0.015784	0	0	-0.372965	-0.0415819	-0.234071	0	0.00138152	0	0	-0.333836	0.0387592	0.0667654	0.0679432	-0.26653	0.813827	0.499865	0.690617	0	0	0.0507426	-0.182941	0.481602	0.493854	1.33908	0	0
20.18	2.90007	1.31848	-1.37188	0.719528	-0.508488	0.948136	-0.345878	0.00747277	-0.21596	0.0834188	0.010758	0	0	-0.38552	-0.0547593	-0.24103	0	0.00015236	0	0	-0.342401	0.0393312	0.0766159	0.0706833	-0.255357	0.806345	0.489175	0.68686	0	0	0.051164	-0.190482	0.48161	0.4982	1.34068	0	0
20.19	2.87286	1.32275	-1.34236	0.719152	-0.508608	0.947161	-0.339655	0.0141266	-0.215197	0.0836114	0.0108044	0	0	-0.376774	-0.0594618	-0.241782	0	0.00360771	0	0	-0.336472	0.0467661	0.0756731	0.0708277	-0.254597	0.798265	0.486219	0.682093	0	0	0.0508349	-0.189654	0.483339	0.49913	1.3414	0	0
20.2	2.92734	1.33034	-1.39058	0.715716	-0.508337	0.946927	-0.332848	-0.00531389	-0.226111	0.089442	0.016678	0	0	-0.369455	-0.0413072	-0.233112	0	0.000683871	0	0	-0.329867	0.0364743	0.066012	0.0620075	-0.27441	0.837044	0.518518	0.715157	0	0	0.0510359	-0.183568	0.483508	0.492923	1.34132	0	0
20.21	2.83153	1.33078	-1.31092	0.719405	-0.510476	0.947334	-0.318913	0.0175563	-0.204925	0.095634	0.00963939	0	0	-0.365205	-0.0640511	-0.251494	0	0.00349667	0	0	-0.328922	0.0503519	0.0835947	0.0628267	-0.274949	0.757012	0.533376	0.645085	0	0	0.0538811	-0.184003	0.480237	0.491559	1.34145	0	0
20.22	2.89812	1.3463	-1.36918	0.71619	-0.509095	0.946752	-0.305062	-0.00548171	-0.220961	0.10311	0.017866	0	0	-0.350893	-0.0427778	-0.237198	0	-0.00170596	0	0	-0.310818	0.034528	0.0681615	0.0732281	-0.401474	1.20314	0.750013	1.55789	0	0	0.0492526	-0.177755	0.468252	0.481314	1.35176	0	0
20.23	2.83023	1.33213	-1.31043	0.719441	-0.510496	0.947133	-0.314959	0.0166492	-0.206918	0.100159	0.0124469	0	0	-0.363707	-0.0637126	-0.252519	0	0.00402514	0	0	-0.327055	0.0520487	0.0793513	0.0766148	-0.31758	1.08227	0.573091	1.51482	0	0	0.0504578	-0.181542	0.465099	0.490174	1.35409	0	0
20.24	2.8894	1.32716	-1.36644	0.71505	-0.509943	0.947166	-0.322683	-0.00347544	-0.214645	0.104498	0.0179688	0	0	-0.371391	-0.0445439	-0.247199	0	0.00185456	0	0	-0.337927	0.0477187	0.0788153	0.0733868	-0.258886	0.727037	0.465273	1.1844	0	0	0.054321	-0.171261	0.466062	0.486895	1.35751	0	0
